<?xml version="1.0" standalone="no"?>
<!DOCTYPE svg PUBLIC "-//W3C//DTD SVG 20010904//EN"
 "http://www.w3.org/TR/2001/REC-SVG-20010904/DTD/svg10.dtd">
<svg version="1.0" xmlns="http://www.w3.org/2000/svg"
 width="1080.000000pt" height="1080.000000pt" viewBox="0 0 1080.000000 1080.000000"
 preserveAspectRatio="xMidYMid meet">
<metadata>
Created by potrace 1.14, written by Peter Selinger 2001-2017
</metadata>
<g transform="translate(0.000000,1080.000000) scale(0.100000,-0.100000)"
fill="#000000" stroke="none">
<path d="M7277 8908 c-7 -62 -33 -157 -69 -250 -12 -30 -22 -44 -74 -100 -40
-43 -107 -98 -120 -98 -8 0 -28 -8 -46 -18 -18 -10 -53 -24 -78 -31 -25 -7
-59 -17 -76 -22 -17 -5 -46 -9 -66 -9 -22 0 -38 -6 -41 -14 -8 -21 2 -26 50
-26 24 0 43 -4 43 -10 0 -5 18 -10 39 -10 22 0 43 -4 46 -10 3 -5 16 -10 28
-10 12 0 37 -9 55 -20 18 -11 39 -20 47 -20 8 0 15 -4 15 -10 0 -5 6 -10 14
-10 14 0 86 -64 86 -76 0 -4 16 -24 35 -45 23 -26 41 -62 56 -111 12 -40 25
-77 29 -83 5 -5 14 -45 21 -87 7 -44 18 -78 24 -78 6 0 19 37 29 83 37 173 78
257 172 351 58 57 86 73 185 105 37 11 76 21 88 21 11 0 21 5 21 10 0 6 20 10
43 10 48 0 58 5 50 26 -3 9 -21 14 -48 14 -24 0 -47 5 -50 10 -3 6 -16 10 -27
10 -49 0 -162 48 -223 95 -38 29 -59 49 -106 105 -37 43 -92 187 -104 270 -6
47 -23 90 -35 90 -4 0 -10 -24 -13 -52z"/>
<path d="M2496 8643 c-3 -10 -10 -63 -16 -118 -17 -160 -65 -388 -102 -485
-48 -124 -78 -171 -170 -262 -98 -97 -162 -134 -305 -178 -37 -12 -77 -25 -88
-30 -11 -5 -38 -11 -60 -14 -22 -3 -65 -11 -95 -17 -60 -11 -161 -26 -252 -36
-101 -10 -77 -21 92 -43 158 -21 198 -28 305 -54 112 -28 142 -38 230 -83 216
-110 336 -285 396 -578 22 -111 48 -274 55 -347 3 -43 10 -78 14 -78 10 0 20
37 20 78 0 37 41 282 65 387 22 96 79 242 118 301 46 72 60 88 117 133 23 19
48 40 54 47 22 21 160 89 226 111 113 36 249 63 488 95 50 6 92 15 92 18 0 4
-30 10 -67 13 -175 16 -368 49 -405 68 -10 5 -25 9 -35 9 -28 0 -102 25 -178
61 -113 53 -238 157 -286 240 -95 163 -140 324 -184 662 -15 115 -19 130 -29
100z"/>
<path d="M5976 8273 c-7 -131 -26 -391 -51 -683 -49 -575 -129 -1044 -230
-1350 -8 -25 -15 -53 -15 -62 0 -10 -4 -18 -10 -18 -5 0 -10 -6 -10 -13 0 -20
-86 -224 -108 -254 -11 -16 -23 -38 -26 -50 -4 -13 -13 -29 -20 -35 -6 -7 -26
-33 -44 -58 -67 -95 -108 -142 -197 -231 -29 -30 -195 -153 -227 -169 -16 -7
-28 -17 -28 -22 0 -4 -8 -8 -18 -8 -10 0 -22 -4 -27 -9 -19 -16 -126 -71 -141
-71 -8 0 -22 -4 -32 -9 -54 -28 -256 -96 -332 -112 -25 -6 -63 -15 -85 -20
-22 -6 -58 -13 -80 -15 -22 -3 -49 -9 -60 -14 -11 -5 -38 -11 -60 -15 -22 -3
-67 -10 -100 -16 -69 -12 -302 -46 -390 -58 -33 -4 -139 -16 -235 -25 -96 -9
-200 -21 -231 -26 -30 -6 -93 -10 -139 -10 -46 0 -122 -4 -169 -10 -47 -5
-159 -15 -248 -21 -90 -7 -163 -15 -163 -19 0 -4 69 -10 153 -14 148 -6 244
-13 492 -36 66 -6 172 -15 235 -20 63 -5 151 -14 195 -20 44 -6 116 -15 160
-20 44 -5 109 -14 145 -20 36 -6 94 -15 130 -20 36 -6 85 -14 110 -18 25 -5
88 -17 140 -27 52 -9 104 -21 115 -25 20 -9 57 -17 110 -26 17 -3 39 -9 50
-14 48 -21 143 -50 163 -50 12 0 22 -4 22 -10 0 -5 9 -10 19 -10 11 0 23 -4
26 -10 3 -5 14 -10 23 -10 9 0 53 -18 97 -40 44 -22 83 -40 88 -40 4 0 17 -9
29 -20 12 -11 28 -20 35 -20 7 0 22 -9 33 -20 11 -11 27 -20 35 -20 8 0 15 -4
15 -8 0 -5 21 -24 48 -42 26 -19 54 -42 63 -52 9 -10 21 -18 28 -18 6 0 11 -4
11 -9 0 -5 26 -36 58 -68 31 -32 70 -76 86 -98 17 -22 32 -42 35 -45 36 -32
164 -281 209 -405 102 -280 174 -625 233 -1115 29 -244 71 -743 85 -1013 4
-70 11 -127 16 -127 4 0 8 21 8 48 0 85 40 610 61 812 6 52 14 138 19 190 10
111 43 358 64 480 38 217 50 276 92 438 38 147 70 248 128 397 30 77 103 208
158 282 21 29 38 54 38 57 0 2 19 24 43 48 23 24 51 55 63 68 28 34 91 90 134
120 19 13 43 32 54 41 10 10 31 23 47 29 16 7 29 16 29 21 0 5 6 9 13 9 6 0
23 9 37 20 14 11 33 20 42 20 9 0 18 3 20 8 4 8 134 72 148 72 6 0 29 8 53 19
62 27 231 81 255 81 11 0 23 4 26 9 3 5 23 11 43 14 21 3 81 15 133 27 52 11
111 23 130 26 19 3 51 9 70 14 19 5 55 12 80 14 25 3 79 10 120 16 173 26 209
31 280 36 41 3 84 9 95 14 11 5 72 11 135 14 63 2 167 9 230 16 275 27 334 31
488 37 89 3 162 9 162 13 0 8 -249 31 -565 51 -82 5 -175 12 -205 15 -143 14
-342 35 -410 45 -41 5 -106 14 -145 19 -113 14 -326 48 -375 60 -25 6 -70 14
-100 19 -30 5 -84 17 -120 27 -123 32 -205 56 -225 64 -11 5 -38 14 -60 21
-22 7 -44 17 -50 21 -5 4 -19 8 -32 8 -13 0 -23 5 -23 10 0 6 -9 10 -19 10
-11 0 -23 5 -26 10 -3 6 -15 10 -26 10 -10 0 -19 5 -19 10 0 6 -7 10 -15 10
-14 0 -53 18 -65 30 -8 8 -91 50 -100 50 -4 0 -27 18 -51 40 -24 22 -50 40
-56 40 -7 0 -13 5 -13 10 0 6 -4 10 -9 10 -24 0 -200 195 -269 296 -84 126
-172 309 -221 465 -56 176 -78 268 -124 519 -44 238 -58 339 -97 690 -21 193
-70 839 -70 923 0 26 -4 47 -9 47 -4 0 -11 -57 -15 -127z"/>
<path d="M8584 6943 c-17 -47 -60 -139 -71 -151 -7 -7 -18 -21 -25 -30 -22
-29 -91 -79 -130 -93 -21 -7 -38 -17 -38 -21 0 -4 -13 -8 -28 -8 -16 0 -31 -3
-35 -6 -12 -12 6 -34 29 -34 13 0 24 -4 24 -10 0 -5 6 -10 14 -10 15 0 77 -34
110 -60 76 -60 122 -130 146 -221 11 -39 40 -55 40 -23 0 36 71 162 114 205
63 62 84 79 96 79 6 0 30 9 52 20 23 11 50 20 60 20 29 0 21 29 -9 36 -59 13
-137 59 -193 113 -60 58 -84 96 -104 165 -13 44 -42 60 -52 29z"/>
</g>
</svg>
